<!-- Generated by IcoMoon.io -->
<svg version="1.1" xmlns="http://www.w3.org/2000/svg" width="32" height="32" viewBox="0 0 32 32">
<title>feedly</title>
<path d="M18.478 2.918c-1.365-1.363-3.597-1.363-4.961 0l-12.466 12.466c-1.365 1.365-1.365 3.595 0 4.961l8.895 8.895c0.619 0.541 1.43 0.866 2.315 0.866h7.472c0.974 0 1.855-0.395 2.494-1.033l8.723-8.723c1.365-1.363 1.365-3.595 0-4.96l-12.472-12.472zM9.425 19.471c-0.091 0.089-0.217 0.147-0.357 0.147h-1.066c-0.126 0-0.241-0.047-0.33-0.125l-1.27-1.267c-0.194-0.195-0.194-0.514 0-0.709l9.24-9.239c0.194-0.195 0.513-0.195 0.707 0l1.781 1.779c0.195 0.194 0.195 0.514 0 0.707l-8.705 8.705zM18.13 25.688l-1.246 1.243c-0.090 0.091-0.216 0.147-0.355 0.147h-1.066c-0.127 0-0.242-0.047-0.33-0.122l-1.27-1.27c-0.194-0.194-0.194-0.513 0-0.707l1.779-1.779c0.194-0.194 0.513-0.194 0.707 0l1.781 1.782c0.195 0.19 0.195 0.51 0 0.706v0zM18.13 18.225l-4.976 4.976c-0.090 0.091-0.216 0.147-0.357 0.147h-1.065c-0.126 0-0.242-0.047-0.33-0.125l-1.27-1.267c-0.194-0.194-0.194-0.513 0-0.707l5.51-5.51c0.194-0.194 0.513-0.194 0.707 0l1.779 1.779c0.197 0.193 0.197 0.511 0.001 0.706v0z"></path>
</svg>
